<svg xmlns="http://www.w3.org/2000/svg" width="48" height="48" fill="none" viewBox="0 0 48 48"><path fill="#546E7A" fill-rule="evenodd" d="M41 17C41 15.8954 40.1046 15 39 15H9C7.89543 15 7 15.8954 7 17V31C7 32.1046 7.89543 33 9 33H19.0543C19.7863 33 20.4598 32.6001 20.8103 31.9575L21.8938 29.9703C22.6518 28.5802 24.6477 28.5802 25.4057 29.9703L26.4893 31.9575C26.8397 32.6001 27.5132 33 28.2452 33H39C40.1046 33 41 32.1046 41 31V17Z" clip-rule="evenodd"/><circle cx="15" cy="24" r="3" fill="#fff"/><circle cx="33" cy="24" r="3" fill="#fff"/></svg>